<svg width="67" height="67" viewBox="0 0 67 67" fill="none" xmlns="http://www.w3.org/2000/svg">
<path d="M5.85547 45.2227V17.8398H13.0234L13.082 19.9688L13.1602 19.9492C13.6029 19.207 14.332 18.5951 15.3477 18.1133C16.3633 17.6185 17.5091 17.3711 18.7852 17.3711C21.2591 17.3711 23.2643 18.224 24.8008 19.9297C26.3372 21.6224 27.1055 23.9922 27.1055 27.0391V27.6641C27.1055 30.6458 26.3307 33.0156 24.7812 34.7734C23.2448 36.5182 21.2656 37.3906 18.8438 37.3906C17.5547 37.3906 16.4414 37.1953 15.5039 36.8047C14.5664 36.401 13.8242 35.8607 13.2773 35.1836V45.2227H5.85547ZM13.2773 30.0664C13.4987 30.6523 13.8828 31.1667 14.4297 31.6094C14.9896 32.0391 15.6471 32.2539 16.4023 32.2539C17.457 32.2539 18.2448 31.8828 18.7656 31.1406C19.2995 30.3984 19.5664 29.3633 19.5664 28.0352V26.7266C19.5664 25.3724 19.2995 24.3438 18.7656 23.6406C18.2448 22.9375 17.457 22.5859 16.4023 22.5859C15.6081 22.5859 14.944 22.8008 14.4102 23.2305C13.8893 23.6471 13.5117 24.1419 13.2773 24.7148V30.0664Z" fill="#77ECD7"/>
<path d="M36.957 42.7031V42.0586C36.957 38.9987 37.9271 36.5964 39.8672 34.8516C41.8073 33.1068 44.3919 32.2344 47.6211 32.2344C50.7982 32.2344 53.2396 32.9245 54.9453 34.3047C56.651 35.6849 57.5755 37.5664 57.7188 39.9492L57.7383 40.418H50.5508V40.1445C50.5508 39.3242 50.3164 38.6732 49.8477 38.1914C49.3789 37.6966 48.6823 37.4492 47.7578 37.4492C46.7031 37.4492 45.8958 37.8203 45.3359 38.5625C44.7891 39.2917 44.5156 40.3398 44.5156 41.707V43.0352C44.5156 44.4154 44.7826 45.4831 45.3164 46.2383C45.8503 46.9935 46.6576 47.3711 47.7383 47.3711C48.7539 47.3711 49.4766 47.1172 49.9062 46.6094C50.3359 46.1016 50.5508 45.4701 50.5508 44.7148V44.4609H57.7383V44.8711C57.6992 47.1888 56.8073 49.0443 55.0625 50.4375C53.3177 51.8307 50.8503 52.5273 47.6602 52.5273C44.444 52.5273 41.8529 51.6549 39.8867 49.9102C37.9336 48.1523 36.957 45.75 36.957 42.7031Z" fill="#34A0C1"/>
<rect x="0.5" y="0.5" width="66" height="66" rx="3.5" stroke="#DDDDDD"/>
<line x1="6" y1="51" x2="21" y2="51" stroke="white" stroke-width="4"/>
<line x1="6" y1="6" x2="59" y2="6" stroke="white" stroke-width="2"/>
<line x1="28" y1="13" x2="59" y2="13" stroke="white" stroke-width="2"/>
<line x1="34" y1="22" x2="59" y2="22" stroke="white" stroke-width="2"/>
</svg>
